<?xml version="1.0" encoding="UTF-8" standalone="no"?>
<svg
   xmlns:dc="http://purl.org/dc/elements/1.1/"
   xmlns:cc="http://creativecommons.org/ns#"
   xmlns:rdf="http://www.w3.org/1999/02/22-rdf-syntax-ns#"
   xmlns:svg="http://www.w3.org/2000/svg"
   xmlns="http://www.w3.org/2000/svg"
   xmlns:sodipodi="http://sodipodi.sourceforge.net/DTD/sodipodi-0.dtd"
   xmlns:inkscape="http://www.inkscape.org/namespaces/inkscape"
   inkscape:version="1.0 (4035a4fb49, 2020-05-01)"
   sodipodi:docname="email.svg"
   id="svg8"
   height="200"
   width="200"
   p-id="1063"
   version="1.1"
   viewBox="0 0 1024 1024"
   style=""
   class="icon"
   t="1521703844620">
  <metadata
     id="metadata12">
    <rdf:RDF>
      <cc:Work
         rdf:about="">
        <dc:format>image/svg+xml</dc:format>
        <dc:type
           rdf:resource="http://purl.org/dc/dcmitype/StillImage" />
      </cc:Work>
    </rdf:RDF>
  </metadata>
  <sodipodi:namedview
     inkscape:current-layer="svg8"
     inkscape:cy="90.675991"
     inkscape:cx="100"
     inkscape:zoom="4.29"
     showgrid="false"
     id="namedview10"
     inkscape:window-height="480"
     inkscape:window-width="640"
     inkscape:pageshadow="2"
     inkscape:pageopacity="0"
     guidetolerance="10"
     gridtolerance="10"
     objecttolerance="10"
     borderopacity="1"
     bordercolor="#666666"
     pagecolor="#ffffff" />
  <defs
     id="defs4">
    <style
       id="style2"
       type="text/css" />
  </defs>
  <path
     style="fill:#a9fdef;fill-opacity:1"
     id="path6"
     fill="#ffbf00"
     p-id="1064"
     d="M896 840.533333H128c-29.866667 0-55.466667-25.6-55.466667-55.466666V238.933333c0-29.866667 25.6-55.466667 55.466667-55.466666h768c29.866667 0 55.466667 25.6 55.466667 55.466666v546.133334c0 29.866667-25.6 55.466667-55.466667 55.466666zM836.266667 298.666667c-12.8-12.8-29.866667-12.8-38.4 0l-93.866667 93.866666-132.266667 132.266667c-12.8 12.8-34.133333 21.333333-55.466666 21.333333s-38.4-8.533333-51.2-21.333333L277.333333 349.866667 230.4 298.666667c-12.8-8.533333-29.866667-8.533333-42.666667 0-12.8 12.8-12.8 29.866667 0 38.4L362.666667 512l-174.933334 174.933333c-12.8 12.8-12.8 29.866667 0 38.4 12.8 12.8 29.866667 12.8 38.4 0l174.933334-174.933333 46.933333 46.933333 8.533333 8.533334 4.266667 4.266666c12.8 12.8 29.866667 17.066667 51.2 17.066667s42.666667-8.533333 59.733333-25.6l51.2-51.2 174.933334 174.933333c12.8 12.8 29.866667 12.8 38.4 0 12.8-12.8 12.8-29.866667 0-38.4L657.066667 512l174.933333-174.933333c12.8-8.533333 12.8-25.6 4.266667-38.4z m0 0" />
</svg>
